<svg width="12" height="15" viewBox="0 0 12 15" fill="none" xmlns="http://www.w3.org/2000/svg">
<path fill-rule="evenodd" clip-rule="evenodd" d="M3.1875 5.75C3.1875 4.1967 4.4467 2.9375 6 2.9375C7.5533 2.9375 8.8125 4.1967 8.8125 5.75C8.8125 7.3033 7.5533 8.5625 6 8.5625C4.4467 8.5625 3.1875 7.3033 3.1875 5.75ZM6 4.0625C5.06802 4.0625 4.3125 4.81802 4.3125 5.75C4.3125 6.68198 5.06802 7.4375 6 7.4375C6.93198 7.4375 7.6875 6.68198 7.6875 5.75C7.6875 4.81802 6.93198 4.0625 6 4.0625Z" fill="white"/>
<path fill-rule="evenodd" clip-rule="evenodd" d="M1.09231 5.09543C1.29763 2.60452 3.37917 0.6875 5.87852 0.6875H6.12149C8.62084 0.6875 10.7024 2.60452 10.9077 5.09543C11.0178 6.43063 10.6053 7.75644 9.75727 8.79359L7.06117 12.0908C6.51271 12.7616 5.48729 12.7616 4.93884 12.0908L2.24274 8.79359C1.39468 7.75644 0.982249 6.43063 1.09231 5.09543ZM5.87852 1.8125C3.96465 1.8125 2.37073 3.28045 2.21351 5.18785C2.12739 6.23257 2.4501 7.26994 3.11366 8.08146L5.80976 11.3787C5.90808 11.499 6.09192 11.499 6.19025 11.3787L8.88635 8.08146C9.54991 7.26994 9.87262 6.23257 9.7865 5.18785C9.62928 3.28045 8.03535 1.8125 6.12149 1.8125H5.87852Z" fill="white"/>
<path d="M2.75312 11.2516C2.89205 10.9737 2.77942 10.6358 2.50156 10.4969C2.2237 10.358 1.88582 10.4706 1.74689 10.7484L0.246885 13.7484C0.159701 13.9228 0.169018 14.1299 0.27151 14.2957C0.374001 14.4616 0.555051 14.5625 0.750001 14.5625H11.25C11.445 14.5625 11.626 14.4616 11.7285 14.2957C11.831 14.1299 11.8403 13.9228 11.7531 13.7484L10.2531 10.7484C10.1142 10.4706 9.77631 10.358 9.49844 10.4969C9.22058 10.6358 9.10795 10.9737 9.24689 11.2516L10.3399 13.4375H1.66014L2.75312 11.2516Z" fill="white"/>
</svg>
