<svg width="19" height="19" viewBox="0 0 22 20" fill="none" xmlns="http://www.w3.org/2000/svg">
<path fill-rule="evenodd" clip-rule="evenodd" d="M10.6023 16.636C10.7302 16.7128 10.8671 16.7468 11 16.7451C11.1329 16.7468 11.2698 16.7128 11.3977 16.636L12.533 15.9548C14.7595 14.619 17.4825 14.4008 19.8933 15.3651C20.7826 15.7208 21.75 15.0659 21.75 14.108V2.44915C21.75 1.8712 21.3981 1.35148 20.8615 1.13683C17.7564 -0.105202 14.2492 0.17582 11.3815 1.89644L11 2.12536L10.6185 1.89644C7.75077 0.17582 4.24357 -0.105202 1.13848 1.13683C0.60187 1.35148 0.25 1.8712 0.25 2.44915V14.108C0.25 15.0659 1.21739 15.7208 2.10672 15.3651C4.51752 14.4008 7.24052 14.619 9.46701 15.9548L10.6023 16.636ZM1.75 2.50798V13.8948C4.54579 12.8467 7.67179 13.1284 10.2388 14.6686L10.25 14.6754V3.42464L9.84673 3.18268C7.39774 1.71329 4.40634 1.46495 1.75 2.50798ZM11.7612 14.6686L11.75 14.6754V3.42464L12.1533 3.18268C14.6023 1.71329 17.5937 1.46495 20.25 2.50798V13.8948C17.4542 12.8467 14.3282 13.1284 11.7612 14.6686Z" fill="#505050"/>
<path d="M8.27516 17.0422C6.2513 15.8617 3.7487 15.8617 1.72484 17.0422L1.6221 17.1022C1.26431 17.3109 1.14346 17.7701 1.35217 18.1279C1.56088 18.4857 2.02011 18.6065 2.3779 18.3978L2.48065 18.3379C4.03746 17.4298 5.96254 17.4298 7.51935 18.3379L8.60661 18.9721C10.0856 19.8349 11.9144 19.8349 13.3934 18.9721L14.4806 18.3379C16.0375 17.4298 17.9625 17.4298 19.5194 18.3379L19.6221 18.3978C19.9799 18.6065 20.4391 18.4857 20.6478 18.1279C20.8565 17.7701 20.7357 17.3109 20.3779 17.1022L20.2752 17.0422C18.2513 15.8617 15.7487 15.8617 13.7248 17.0422L12.6376 17.6765C11.6257 18.2668 10.3743 18.2668 9.36242 17.6765L8.27516 17.0422Z" fill="#505050"/>
</svg>
