<svg width="15" height="18" viewBox="0 0 15 18" fill="none" xmlns="http://www.w3.org/2000/svg">
<path fill-rule="evenodd" clip-rule="evenodd" d="M8.29771 15.75C8.46393 15.75 8.61738 15.6608 8.69967 15.5164L12.0456 9.64314C12.4892 8.8646 12.6753 7.96579 12.5774 7.07514L12.2243 3.86147C12.1615 3.28968 11.7126 2.83677 11.1414 2.76883L9.02434 2.51699C7.62677 2.35074 6.20974 2.49485 4.87426 2.93904C4.21472 3.15841 3.68645 3.659 3.43194 4.30579L1.72785 8.63636C1.68619 8.74224 1.6574 8.85274 1.64209 8.96548C1.51285 9.91759 2.34632 10.7207 3.29299 10.5563L6.7088 9.96305C7.78779 9.77565 8.71971 10.7278 8.50912 11.8026L7.84372 15.1984C7.78772 15.4842 8.00651 15.75 8.29771 15.75ZM10.003 16.2589C9.65392 16.8716 9.00293 17.25 8.29772 17.25C7.06233 17.25 6.13416 16.1223 6.37171 14.91L7.03711 11.5141C7.03997 11.4996 7.03844 11.4907 7.03643 11.4843C7.03396 11.4764 7.0289 11.4672 7.02054 11.4587C7.01218 11.4502 7.00308 11.4449 6.99528 11.4423C6.98894 11.4401 6.98009 11.4384 6.96548 11.4409L3.54967 12.0342C1.60349 12.3722 -0.109975 10.7211 0.155723 8.76372C0.187187 8.53193 0.24638 8.30477 0.332032 8.0871L2.03612 3.75653C2.4534 2.69611 3.31951 1.87537 4.40084 1.51571C5.94569 1.00188 7.58487 0.835176 9.20152 1.02749L11.3186 1.27933C12.5828 1.42971 13.5763 2.43212 13.7153 3.69762L14.0685 6.91129C14.2009 8.1163 13.9491 9.33233 13.349 10.3856L10.003 16.2589Z" fill="#0D0F0E" fill-opacity="0.5"/>
</svg>
