<svg width="48" height="48" viewBox="0 0 48 48" fill="none" xmlns="http://www.w3.org/2000/svg">
<path fill-rule="evenodd" clip-rule="evenodd" d="M17.038 18.7183C10.2489 19.3416 2.13276 20.9202 0.928738 21.8517C0.272608 22.3586 0 24.0835 0 27.7194C0 31.9357 0.200447 32.9413 1.10513 33.2651C1.83743 33.5267 5.04659 31.8946 10.6264 28.4218C15.2554 25.5412 21.0723 22.145 23.5525 20.8753C26.0327 19.6056 28.0626 18.4524 28.0626 18.3123C28.0626 17.9617 23.4169 18.133 17.038 18.7183ZM38.0021 22.6282C29.6154 29.2973 18.3603 43.1592 18.83 46.2403C19.0324 47.5704 19.3699 47.6451 25.9606 47.8145C33.3771 48.0056 34.7441 47.5891 34.7441 45.1356C34.7441 42.3796 38.6956 29.1921 41.0281 24.1644C42.3297 21.3585 43.3006 18.9755 43.1856 18.8677C43.07 18.7606 40.7375 20.4531 38.0021 22.6282ZM29.733 22.013C21.7004 26.0537 15.838 29.4897 7.48803 35.0517L1.42624 39.0892C0.501546 39.7051 -0.0242875 40.7179 0.0305883 41.7774L0.185129 44.7611C0.269237 46.3847 1.67523 47.6753 3.41487 47.7258L10.5169 47.932C11.8161 47.9697 13.0206 47.2994 13.6035 46.2143L14.4161 44.7016C17.7863 38.4279 23.7029 30.7961 29.6414 25.0636C32.9234 21.8959 35.4891 19.3086 35.3435 19.3142C35.1978 19.3198 32.6729 20.5341 29.733 22.013ZM45.6638 23.3835C41.9789 31.0527 38.0869 44.8087 38.9843 46.9888C39.4961 48.231 47.3041 48.378 47.8079 47.1544C47.987 46.7185 48.0531 40.2032 47.9536 32.6767L47.8366 23.8048C47.8216 22.668 46.1621 22.3462 45.6638 23.3835Z" fill="white"/>
<path fill-rule="evenodd" clip-rule="evenodd" d="M11.3587 1.55674C10.154 2.7517 9.11833 3.11349 6.89938 3.11349C5.30642 3.11349 4.00894 4.31954 4.00894 5.80728C4.00894 7.87526 3.62074 8.84044 2.33855 9.96316C0.16637 11.8649 0.231182 13.076 2.61917 15.2081C5.3967 17.6883 6.33145 17.1036 6.34014 12.8836C6.34682 9.74397 6.58268 9.14494 8.53169 7.32853C10.4119 5.57626 11.1783 5.29293 14.0313 5.29293C16.8462 5.29293 17.658 5.58373 19.4133 7.21893C20.8291 8.53905 21.5988 9.97063 21.8574 11.7659C22.2282 14.342 22.2763 14.3837 24.6476 14.1988C27.7185 13.9596 28.1982 12.1295 25.7521 9.98745C24.4405 8.83919 24.0536 7.88709 24.0536 5.80728C24.0536 4.31954 22.7561 3.11349 21.1632 3.11349C18.9442 3.11349 17.9086 2.7517 16.7039 1.55674C15.8407 0.700535 14.638 0 14.0313 0C13.4246 0 12.2219 0.700535 11.3587 1.55674Z" fill="white"/>
</svg>
