<svg width="72" height="77" viewBox="0 0 72 77" fill="none" xmlns="http://www.w3.org/2000/svg">
<path d="M1.79622 35.4391L1.79651 35.4388C1.96011 35.3033 2.28755 35.1235 2.80419 34.9127C3.30873 34.7069 3.95466 34.4867 4.72219 34.2577C6.25643 33.8 8.2485 33.3154 10.5091 32.8446C15.0294 31.9032 20.5945 31.023 25.6614 30.5249C30.4344 30.0559 34.5532 29.7535 37.4746 29.6382C38.9376 29.5805 40.0889 29.5703 40.8687 29.6079C40.9191 29.6103 40.9675 29.6129 41.0141 29.6157C40.712 29.8142 40.3313 30.0534 39.8847 30.3251C38.668 31.0653 36.9856 32.0332 35.1323 33.049C31.3969 35.0965 22.6674 40.5543 15.7293 45.1772L15.7293 45.1772C11.5534 47.9601 8.27605 49.9976 5.9116 51.2854C4.72772 51.9302 3.78667 52.3792 3.08372 52.6406C2.73169 52.7715 2.45399 52.8497 2.24431 52.8848C2.14022 52.9022 2.06125 52.9076 2.00383 52.9061C1.97562 52.9054 1.95496 52.903 1.94071 52.9006C1.92692 52.8982 1.92077 52.896 1.92041 52.8958C1.66837 52.7992 1.48328 52.6627 1.32802 52.4285C1.16206 52.1782 1.01377 51.7909 0.897229 51.1648C0.662667 49.9045 0.58609 47.8577 0.58609 44.4665C0.58609 41.5558 0.688381 39.4358 0.907807 37.9509C1.01749 37.2087 1.15396 36.6433 1.31284 36.2248C1.47294 35.8032 1.6426 35.5661 1.79622 35.4391ZM28.7923 74.1068L28.7923 74.1067C28.7233 73.6221 28.8682 72.8358 29.2816 71.7467C29.6872 70.6781 30.3237 69.387 31.156 67.9255C32.8197 65.0042 35.2403 61.4459 38.0818 57.6988C43.7665 50.2024 51.0989 41.9984 57.3452 36.6801C59.3904 34.9388 61.2826 33.3928 62.6827 32.3052C63.203 31.901 63.6522 31.5626 64.0142 31.302C63.8818 31.6893 63.7083 32.1653 63.4994 32.7145C62.9169 34.2455 62.0688 36.3193 61.0959 38.565C59.3344 42.6303 56.9734 49.9626 55.0554 56.8162C54.0953 60.2467 53.2437 63.5666 52.6316 66.3087C52.0239 69.031 51.64 71.2356 51.64 72.4051C51.64 73.3574 51.5135 74.028 51.2172 74.5234C50.9312 75.0016 50.4452 75.3841 49.5718 75.6693C48.6863 75.9585 47.4424 76.1339 45.7012 76.2143C43.9657 76.2944 41.7693 76.2792 38.9942 76.2026C36.5242 76.1346 34.6487 76.0763 33.2168 75.9941C31.7786 75.9114 30.8181 75.8059 30.1648 75.6514C29.513 75.4973 29.2438 75.3117 29.1013 75.1275C28.9467 74.9279 28.8688 74.6446 28.7923 74.1068ZM11.595 56.6358L11.3047 56.2287L11.595 56.6358C24.09 47.7242 32.8554 42.2236 44.8693 35.7527C47.0696 34.5676 49.1137 33.489 50.6339 32.7061C50.8185 32.611 50.9953 32.5203 51.1636 32.4344C50.9117 32.7108 50.6314 33.0157 50.3254 33.346C48.7803 35.0142 46.5926 37.3195 44.1357 39.8585L44.1357 39.8585C35.2079 49.0861 26.3124 61.3695 21.2375 71.4846L20.02 73.9113C19.234 75.4779 17.6099 76.4455 15.8581 76.3911L9.82569 76.2036L5.21781 76.0604C2.8721 75.9875 0.976276 74.1241 0.862867 71.78L0.79272 70.3301L0.631333 66.9938C0.557339 65.4642 1.26637 64.0019 2.51321 63.1127L11.595 56.6358ZM59.4697 75.5929C59.1026 75.4131 58.9843 75.2636 58.9592 75.1983C58.8314 74.8656 58.7683 74.2298 58.8097 73.2728C58.8501 72.3376 58.986 71.1617 59.2063 69.7954C59.6467 67.0644 60.4178 63.6109 61.4052 59.8742C63.3807 52.3989 66.2105 43.8343 68.9561 37.7158L68.4999 37.5111L68.9561 37.7158C69.4834 36.5405 71.2394 36.9051 71.2553 38.1931L71.4305 52.425C71.5051 58.4593 71.5175 64.0869 71.4779 68.292C71.4581 70.395 71.4253 72.1394 71.3808 73.3999C71.3586 74.0308 71.3335 74.5361 71.3062 74.9028C71.2924 75.0866 71.2785 75.2304 71.2648 75.3353C71.2519 75.4337 71.2425 75.4697 71.2432 75.4699C71.2175 75.5269 71.1056 75.6628 70.7534 75.8216C70.4116 75.9758 69.9338 76.1107 69.3459 76.2185C68.1743 76.4334 66.6529 76.5251 65.117 76.4942C63.5811 76.4633 62.0585 76.3104 60.8845 76.0481C60.2956 75.9166 59.8151 75.762 59.4697 75.5929Z" fill="#05A685"/>
<path d="M17.4677 2.84005L17.1037 2.49728C15.2988 4.41419 13.7472 4.99455 10.4228 4.99455C8.0362 4.99455 6.0923 6.92926 6.0923 9.31584C6.0923 12.6332 5.5107 14.1815 3.58971 15.9826C0.335339 19.0332 0.43244 20.9761 4.01014 24.3964C8.17145 28.3751 9.5719 27.4371 9.58492 20.6675C9.59493 15.631 9.94829 14.67 12.8683 11.7562C15.6852 8.94525 16.8334 8.49074 21.1078 8.49074C25.3252 8.49074 26.5415 8.95724 29.1712 11.5804C31.2924 13.6981 32.4456 15.9946 32.833 18.8744L17.4677 2.84005ZM17.4677 2.84005C16.531 3.83491 15.6303 4.51359 14.5082 4.9331C13.3967 5.34862 12.1079 5.49455 10.4228 5.49455C8.31096 5.49455 6.5923 7.20679 6.5923 9.31584C6.5923 10.9976 6.44604 12.284 6.02947 13.3936C5.60891 14.5138 4.92862 15.4127 3.93169 16.3473L3.93166 16.3474C2.31874 17.8593 1.6845 18.9698 1.73728 20.0259C1.79131 21.1073 2.56933 22.3273 4.35566 24.035L4.35568 24.035C5.38739 25.0214 6.21248 25.6673 6.86223 25.9989C7.51658 26.3329 7.86376 26.2884 8.0751 26.147C8.3353 25.9729 8.60972 25.5225 8.80351 24.5662C8.99176 23.6373 9.08168 22.3485 9.08492 20.6665V20.6665C9.0899 18.1586 9.17649 16.5723 9.66618 15.243C10.162 13.8971 11.0526 12.8617 12.5151 11.4023C13.9299 9.99049 14.9823 9.10978 16.2573 8.60453C17.5271 8.10137 18.9677 7.99074 21.1078 7.99074C23.2211 7.99074 24.6608 8.1048 25.9138 8.58499C27.1757 9.06859 28.1985 9.90387 29.5243 11.2264L29.5245 11.2265C31.7206 13.4191 32.926 15.8155 33.3285 18.8078C33.4686 19.8494 33.574 20.5999 33.707 21.1522C33.8415 21.7102 33.9853 21.9764 34.1404 22.1212C34.2823 22.2537 34.5032 22.3482 34.9677 22.3745C35.4403 22.4012 36.0721 22.354 36.9717 22.2789L36.9718 22.2789C39.2222 22.0913 40.2395 21.3033 40.4546 20.4252C40.5669 19.9665 40.4954 19.3878 40.1539 18.6936C39.8123 17.9992 39.2136 17.2185 38.326 16.3863C37.309 15.433 36.6175 14.5296 36.1913 13.4065C35.769 12.2936 35.6234 11.0066 35.6234 9.31584C35.6234 7.20679 33.9047 5.49455 31.7929 5.49455C30.1078 5.49455 28.819 5.34862 27.7075 4.9331C26.5854 4.51359 25.6847 3.83491 24.748 2.84005C24.1313 2.18513 23.391 1.58806 22.7012 1.15783C22.3566 0.942897 22.0323 0.774497 21.7493 0.661272C21.4591 0.545127 21.244 0.5 21.1078 0.5C20.9717 0.5 20.7566 0.545127 20.4664 0.661272C20.1834 0.774497 19.8591 0.942897 19.5145 1.15783C18.8247 1.58806 18.0844 2.18513 17.4677 2.84005Z" fill="#FDA506"/>
</svg>
