<svg width="50" height="50" viewBox="0 0 50 50" fill="none" xmlns="http://www.w3.org/2000/svg">
<circle cx="25" cy="25" r="25" fill="#05A685" fill-opacity="0.5"/>
<path fill-rule="evenodd" clip-rule="evenodd" d="M20.0282 13.3046C19.2452 13.7631 13 23.3492 13 24.0931C13 24.9661 13.2423 25.1643 19.4003 29.3217C24.3196 32.6425 24.6958 32.839 24.9301 32.2061C25.1526 31.6043 26.0753 31.0938 26.6503 31.2545C26.7641 31.2865 27.1266 30.8694 27.4561 30.3275C28.0365 29.373 28.4256 29.212 29.8763 29.3262C30.2561 29.3563 30.6615 29.228 30.7769 29.0411C30.892 28.8545 31.4798 28.7016 32.0827 28.7016C33.0788 28.7016 33.3112 28.5044 34.6279 26.5408C36.2593 24.1081 36.3952 23.3312 35.3558 22.3863C33.8808 21.0457 21.6468 12.9907 21.1 13C20.7875 13.0055 20.3054 13.1427 20.0282 13.3046ZM25.5529 19.3999C25.9644 19.751 26.6978 20.3387 27.1827 20.7059C28.1157 21.4125 28.3827 22.991 27.7628 24.137C27.5974 24.4432 27.3788 25.0877 27.2776 25.5696C27.0237 26.7761 25.7429 27.3478 23.4904 27.259C21.2231 27.1699 20.599 26.6697 19.8721 24.3573C19.1769 22.1462 19.4321 21.2032 20.992 20.2178C21.6788 19.784 22.3337 19.279 22.4471 19.0956C22.7968 18.5294 24.7574 18.7214 25.5529 19.3999ZM22.7984 22.1513C22.0673 22.883 22.1808 23.8022 23.0747 24.3884C24.1327 25.0819 25.1795 24.5423 25.1795 23.3036C25.1795 21.7559 23.8413 21.1083 22.7984 22.1513ZM32.8718 32.3456C32.8718 33.3354 34.0311 34.7936 34.8183 34.7936C35.6596 34.7936 35.6346 33.5297 34.7715 32.4322C33.9183 31.3468 32.8718 31.299 32.8718 32.3456ZM28.8346 34.2777C28.5471 35.0271 29.2337 35.7052 30.524 35.9476C32.0112 36.2266 32.6035 35.6651 31.7365 34.7978C30.8455 33.9068 29.0971 33.5932 28.8346 34.2777ZM34.6157 36.5571C34 37.0333 34 37.0429 34.6157 37.519C34.958 37.7836 35.6154 38 36.0769 38C36.5385 38 37.1958 37.7836 37.5381 37.519C38.1538 37.0429 38.1538 37.0333 37.5381 36.5571C37.1958 36.2926 36.5385 36.0762 36.0769 36.0762C35.6154 36.0762 34.958 36.2926 34.6157 36.5571Z" fill="white"/>
</svg>
