<svg width="42" height="32" viewBox="0 0 42 32" fill="none" xmlns="http://www.w3.org/2000/svg">
<path d="M37.6181 27.416C41.3921 23.32 41.0121 18.06 41.0001 18V2C41.0001 1.46957 40.7894 0.96086 40.4143 0.585787C40.0392 0.210714 39.5305 0 39.0001 0H27.0001C24.7941 0 23.0001 1.794 23.0001 4V18C23.0001 18.5304 23.2108 19.0391 23.5859 19.4142C23.9609 19.7893 24.4697 20 25.0001 20H31.1561C31.1138 20.9888 30.8184 21.9501 30.2981 22.792C29.2821 24.394 27.3681 25.488 24.6061 26.04L23.0001 26.36V32H25.0001C30.5661 32 34.8121 30.458 37.6181 27.416ZM15.6041 27.416C19.3801 23.32 18.9981 18.06 18.9861 18V2C18.9861 1.46957 18.7754 0.96086 18.4003 0.585787C18.0252 0.210714 17.5165 0 16.9861 0H4.98608C2.78008 0 0.986084 1.794 0.986084 4V18C0.986084 18.5304 1.1968 19.0391 1.57187 19.4142C1.94694 19.7893 2.45565 20 2.98608 20H9.14208C9.09983 20.9888 8.8044 21.9501 8.28408 22.792C7.26808 24.394 5.35408 25.488 2.59208 26.04L0.986084 26.36V32H2.98608C8.55208 32 12.7981 30.458 15.6041 27.416V27.416Z" fill="#FDA506"/>
</svg>
